<?xml version="1.0" encoding="UTF-8"?>
<svg id="Ebene_2" data-name="Ebene 2" xmlns="http://www.w3.org/2000/svg" viewBox="0 0 122.87 94.48">
  <defs>
    <style>
      .cls-1 {
        fill: #ee7a2e;
      }
    </style>
  </defs>
  <g id="Brand_Manual" data-name="Brand Manual">
    <path class="cls-1" d="M83.13,82.42c-10.43,10.83-28.03,10.63-38.66,0-2.41-2.41-6.32-2.41-8.73,0-4.35,3.25-12.49,16.96-18.96,10.23,0,0-14.97-14.97-14.97-14.97-2.41-2.41-2.41-6.32,0-8.73,18.74-16.77,15.09-25.2,33.93-4.74,5.71,5.89,15.37-3.77,9.48-9.48,0,0-4.52-4.52-4.51-4.53C14.97,24.77,52.49-12.99,78.4,12.07c2.41,2.41,6.32,2.41,8.73,0,4.33-3.24,12.5-16.96,18.96-10.23,0,0,14.97,14.97,14.97,14.97,2.41,2.41,2.41,6.32,0,8.73l-14.97,14.97c-2.41,2.41-6.32,2.41-8.73,0,0,0-10.22-10.22-10.23-10.23-3.37-3.37-8.59-1.53-10.58,2.42-2.18,4.33,1.71,8.34,4.67,11.06,3.48,3.21,6.15,6.37,7.79,10.91,3.29,9.11,1.36,19.59-5.06,26.86-.27.3-.54.6-.82.89Z"/>
  </g>
</svg>