<?xml version="1.0" encoding="UTF-8"?>
<svg id="Ebene_2" data-name="Ebene 2" xmlns="http://www.w3.org/2000/svg" viewBox="0 0 500.96 94.48">
  <defs>
    <style>
      .cls-1 {
        fill: #ee7a2e;
      }

      .cls-2 {
        fill: #f4f2ed;
      }
    </style>
  </defs>
  <g id="Brand_Manual" data-name="Brand Manual">
    <g>
      <path class="cls-1" d="M83.13,82.42c-10.43,10.83-28.03,10.63-38.66,0-2.41-2.41-6.32-2.41-8.73,0-4.35,3.25-12.49,16.96-18.96,10.23,0,0-14.97-14.97-14.97-14.97-2.41-2.41-2.41-6.32,0-8.73,18.74-16.77,15.09-25.2,33.93-4.74,5.71,5.89,15.37-3.77,9.48-9.48,0,0-4.52-4.52-4.51-4.53C14.97,24.77,52.49-12.99,78.4,12.07c2.41,2.41,6.32,2.41,8.73,0,4.33-3.24,12.5-16.96,18.96-10.23,0,0,14.97,14.97,14.97,14.97,2.41,2.41,2.41,6.32,0,8.73l-14.97,14.97c-2.41,2.41-6.32,2.41-8.73,0,0,0-10.22-10.22-10.23-10.23-3.37-3.37-8.59-1.53-10.58,2.42-2.18,4.33,1.71,8.34,4.67,11.06,3.48,3.21,6.15,6.37,7.79,10.91,3.29,9.11,1.36,19.59-5.06,26.86-.27.3-.54.6-.82.89Z"/>
      <path class="cls-2" d="M138.67,77c-.44-.62-.44-1.23.18-1.93l5.1-5.89c.61-.7,1.32-.79,2.02-.18,3.87,3.95,7.38,6.06,12.4,6.06s8.61-2.2,8.61-6.59c0-4.13-3.08-5.63-7.38-7.56l-7.47-3.52c-6.5-2.99-12.3-7.65-12.3-16.79,0-11.16,8.53-17.32,18.99-17.32,7.3,0,13.18,2.9,18.02,8.09.61.62.61,1.32.09,2.02l-5.01,6.07c-.53.7-1.23.88-1.93.35-3.78-3.34-6.86-5.01-10.73-5.01-4.48,0-7.3,2.2-7.3,5.89s2.46,5.01,7.21,7.21l6.33,2.9c6.68,3.16,13.71,7.3,13.71,17.67,0,12.39-10.11,18.11-20.57,18.11-9.58,0-16.35-4.66-19.95-9.58Z"/>
      <path class="cls-2" d="M184.93,84.03l20.57-58.98c.26-.7.97-1.05,1.67-1.05h10.64c.7,0,1.41.35,1.67,1.05l20.57,58.98c.35.88-.18,1.49-1.14,1.49h-10.37c-.7,0-1.23-.26-1.49-1.05l-2.99-9.05h-23.21l-2.99,9.05c-.26.79-.79,1.05-1.49,1.05h-10.37c-.97,0-1.41-.62-1.06-1.49ZM220.44,64.25l-8-24.44-8,24.44h16Z"/>
      <path class="cls-2" d="M255.56,84.47l-20.57-58.98c-.35-.88.09-1.49,1.06-1.49h10.37c.7,0,1.23.26,1.49,1.05l14.59,44.65,14.59-44.65c.26-.79.79-1.05,1.49-1.05h10.37c.97,0,1.49.61,1.14,1.49l-20.57,58.98c-.26.7-.97,1.05-1.67,1.05h-10.64c-.7,0-1.41-.35-1.67-1.05Z"/>
      <path class="cls-2" d="M298.31,84.21V25.31c0-.79.53-1.32,1.32-1.32h31.29c.79,0,1.32.53,1.32,1.32v8.53c0,.79-.53,1.32-1.32,1.32h-20.04v13.63h18.9c.79,0,1.32.53,1.32,1.32v8.53c0,.79-.53,1.32-1.32,1.32h-18.9v14.42h20.04c.79,0,1.32.53,1.32,1.32v8.53c0,.79-.53,1.32-1.32,1.32h-31.29c-.79,0-1.32-.53-1.32-1.32Z"/>
      <path class="cls-2" d="M373.3,84.65l-13.01-20.66h-4.48v20.22c0,.79-.53,1.32-1.32,1.32h-9.93c-.79,0-1.32-.53-1.32-1.32V25.31c0-.79.53-1.32,1.32-1.32h18.55c14.59,0,21.63,8.17,21.63,19.95,0,8.97-3.96,15.73-12.22,18.64l13.8,21.36c.61.97.18,1.58-.88,1.58h-10.55c-.7,0-1.23-.26-1.58-.88ZM362.67,52.82c5.36,0,10.02-1.85,10.02-8.88s-4.66-8.79-10.02-8.79h-6.86v17.67h6.86Z"/>
      <path class="cls-2" d="M392.83,55.02c0-18.02,14.15-31.73,31.64-31.73,8.88,0,16.09,3.25,21.45,8.7.7.7.7,1.41,0,2.29l-5.89,6.24c-.61.7-1.32.7-1.93.18-3.69-3.08-8.09-5.1-13.54-5.1-10.81,0-18.99,8.26-18.99,19.43s8.18,19.34,19.6,19.34c9.67,0,15.38-5.71,15.65-12.66h-15.65c-.79,0-1.32-.53-1.32-1.32v-8.53c0-.79.53-1.32,1.32-1.32h26.55c.79,0,1.32.53,1.32,1.32v5.71c0,16.09-10.64,29.1-28.31,29.1s-31.91-13.63-31.91-31.65Z"/>
      <path class="cls-2" d="M470.12,84.21v-27.25l-18.02-31.38c-.53-.97-.18-1.58.88-1.58h10.37c.7,0,1.23.26,1.58.88l11.52,20.66,11.43-20.66c.35-.62.88-.88,1.58-.88h10.37c1.06,0,1.41.61.88,1.58l-18.02,31.56v27.07c0,.79-.53,1.32-1.32,1.32h-9.93c-.79,0-1.32-.53-1.32-1.32Z"/>
    </g>
  </g>
</svg>