<?xml version="1.0" encoding="UTF-8"?>
<svg id="Ebene_2" data-name="Ebene 2" xmlns="http://www.w3.org/2000/svg" viewBox="0 0 118.8 41.78">
  <defs>
    <style>
      .cls-1 {
        fill: #1d1e1b;
      }
    </style>
  </defs>
  <g id="Brand_Manual" data-name="Brand Manual">
    <g>
      <g>
        <path class="cls-1" d="M1.01,17.46c-.14-.2-.14-.4.06-.63l1.66-1.91c.2-.23.43-.26.66-.06,1.26,1.29,2.4,1.97,4.03,1.97s2.8-.71,2.8-2.14c0-1.34-1-1.83-2.4-2.46l-2.43-1.14c-2.11-.97-4-2.49-4-5.46C1.38,2,4.15,0,7.55,0c2.37,0,4.29.94,5.86,2.63.2.2.2.43.03.66l-1.63,1.97c-.17.23-.4.29-.63.11-1.23-1.09-2.23-1.63-3.49-1.63-1.46,0-2.37.71-2.37,1.91s.8,1.63,2.34,2.34l2.06.94c2.17,1.03,4.46,2.37,4.46,5.74,0,4.03-3.29,5.89-6.69,5.89-3.12,0-5.32-1.51-6.49-3.11Z"/>
        <path class="cls-1" d="M16.05,19.75L22.73.57c.09-.23.31-.34.54-.34h3.46c.23,0,.46.11.54.34l6.69,19.18c.11.29-.06.49-.37.49h-3.37c-.23,0-.4-.09-.49-.34l-.97-2.94h-7.54l-.97,2.94c-.09.26-.26.34-.49.34h-3.37c-.31,0-.46-.2-.34-.49ZM27.59,13.32l-2.6-7.94-2.6,7.94h5.2Z"/>
        <path class="cls-1" d="M39.01,19.89L32.32.71c-.11-.29.03-.49.34-.49h3.37c.23,0,.4.09.49.34l4.74,14.52L46.01.57c.09-.26.26-.34.49-.34h3.37c.31,0,.49.2.37.49l-6.69,19.18c-.09.23-.31.34-.54.34h-3.46c-.23,0-.46-.11-.54-.34Z"/>
        <path class="cls-1" d="M52.91,19.8V.66c0-.26.17-.43.43-.43h10.17c.26,0,.43.17.43.43v2.77c0,.26-.17.43-.43.43h-6.52v4.43h6.14c.26,0,.43.17.43.43v2.77c0,.26-.17.43-.43.43h-6.14v4.69h6.52c.26,0,.43.17.43.43v2.77c0,.26-.17.43-.43.43h-10.17c-.26,0-.43-.17-.43-.43Z"/>
        <path class="cls-1" d="M77.28,19.95l-4.23-6.72h-1.46v6.57c0,.26-.17.43-.43.43h-3.23c-.26,0-.43-.17-.43-.43V.66c0-.26.17-.43.43-.43h6.03c4.74,0,7.03,2.66,7.03,6.49,0,2.91-1.29,5.12-3.97,6.06l4.49,6.94c.2.31.06.51-.29.51h-3.43c-.23,0-.4-.09-.51-.29ZM73.83,9.6c1.74,0,3.26-.6,3.26-2.89s-1.51-2.86-3.26-2.86h-2.23v5.74h2.23Z"/>
        <path class="cls-1" d="M83.63,10.32c0-5.86,4.6-10.32,10.29-10.32,2.89,0,5.23,1.06,6.97,2.83.23.23.23.46,0,.74l-1.91,2.03c-.2.23-.43.23-.63.06-1.2-1-2.63-1.66-4.4-1.66-3.51,0-6.17,2.69-6.17,6.32s2.66,6.29,6.37,6.29c3.14,0,5-1.86,5.09-4.12h-5.09c-.26,0-.43-.17-.43-.43v-2.77c0-.26.17-.43.43-.43h8.63c.26,0,.43.17.43.43v1.86c0,5.23-3.46,9.46-9.2,9.46s-10.37-4.43-10.37-10.29Z"/>
        <path class="cls-1" d="M108.76,19.8v-8.86l-5.86-10.2c-.17-.31-.06-.51.29-.51h3.37c.23,0,.4.09.51.29l3.74,6.72,3.71-6.72c.11-.2.29-.29.51-.29h3.37c.34,0,.46.2.29.51l-5.86,10.26v8.8c0,.26-.17.43-.43.43h-3.23c-.26,0-.43-.17-.43-.43Z"/>
      </g>
      <g>
        <path class="cls-1" d="M.05,40.47c-.06-.1-.06-.18.02-.28l.29-.33c.1-.11.22-.08.29.01.47.61,1.07,1.04,2.03,1.04,1.14,0,1.81-.61,1.81-1.54,0-.98-.71-1.37-1.62-1.81l-1.08-.52c-.94-.44-1.56-1.11-1.57-2.17,0-1.37,1.07-2.22,2.46-2.23,1.02,0,1.79.43,2.36,1.13.11.13.09.2,0,.3l-.28.32c-.1.11-.2.1-.3,0-.5-.57-1.02-.87-1.75-.87-.88,0-1.56.46-1.56,1.34,0,.65.37,1.07,1.16,1.44l1.05.52c1.04.51,2.05,1.11,2.05,2.54,0,1.51-1.15,2.43-2.74,2.43-1.29,0-2.16-.59-2.64-1.32Z"/>
        <path class="cls-1" d="M6.64,41.41l3.06-8.52c.04-.1.13-.15.23-.15h.7c.1,0,.19.05.23.15l3.1,8.51c.05.13,0,.22-.14.22h-.63c-.1,0-.17-.04-.2-.15l-.65-1.84h-4.06s-.64,1.85-.64,1.85c-.04.11-.1.15-.22.15h-.62c-.14,0-.19-.09-.14-.21ZM12.02,38.77l-1.74-4.9-1.72,4.9h3.45Z"/>
        <path class="cls-1" d="M16.91,41.45l-3.09-8.51c-.05-.13,0-.22.14-.22h.62c.11,0,.18.04.22.15l2.69,7.6,2.66-7.61c.04-.11.1-.15.2-.15h.63c.14,0,.19.09.14.21l-3.07,8.52c-.04.1-.13.15-.23.15h-.7c-.1,0-.19-.05-.23-.15Z"/>
        <path class="cls-1" d="M23,41.42l-.02-8.53c0-.11.06-.18.18-.18h4.25c.11,0,.18.06.18.17v.5c0,.11-.06.18-.18.18h-3.48s0,3.03,0,3.03h3.3c.11,0,.18.06.18.17v.5c0,.11-.06.18-.18.18h-3.3s0,3.32,0,3.32h3.49c.11,0,.18.06.18.17v.5c0,.11-.06.18-.18.18h-4.27c-.11,0-.18-.06-.18-.17Z"/>
        <path class="cls-1" d="M29.35,40.41c-.06-.1-.06-.18.02-.28l.29-.33c.1-.11.22-.08.29.01.47.61,1.07,1.04,2.03,1.04,1.14,0,1.81-.61,1.81-1.54,0-.98-.71-1.37-1.62-1.81l-1.08-.52c-.94-.44-1.56-1.11-1.57-2.17,0-1.37,1.07-2.22,2.46-2.23,1.02,0,1.79.43,2.36,1.13.11.13.09.2,0,.3l-.28.32c-.1.11-.2.1-.3,0-.5-.57-1.02-.87-1.75-.87-.88,0-1.56.46-1.56,1.34,0,.65.37,1.07,1.16,1.44l1.05.52c1.04.51,2.05,1.11,2.05,2.54,0,1.51-1.15,2.43-2.74,2.43-1.29,0-2.16-.59-2.64-1.32Z"/>
        <path class="cls-1" d="M41.16,41.38v-4.09s-2.64-4.39-2.64-4.39c-.08-.13-.04-.23.11-.23h.66c.1,0,.17.04.22.13l2.11,3.59,2.11-3.6c.05-.09.11-.13.22-.13h.66c.15,0,.19.1.11.23l-2.62,4.4v4.09c0,.11-.06.18-.17.18h-.6c-.11,0-.18-.06-.18-.18Z"/>
        <path class="cls-1" d="M45.36,37.15c0-2.58,1.98-4.59,4.54-4.59s4.55,2,4.55,4.57-1.98,4.57-4.54,4.58-4.55-2-4.55-4.56ZM49.91,40.78c2.03,0,3.58-1.57,3.57-3.65s-1.56-3.65-3.59-3.65-3.58,1.57-3.57,3.66,1.54,3.64,3.59,3.64Z"/>
        <path class="cls-1" d="M56.35,38.61v-5.79c-.01-.11.05-.18.17-.18h.6c.11,0,.18.06.18.18v5.67c.01,1.56.85,2.27,2.02,2.27s2.02-.71,2.01-2.28v-5.67c-.01-.11.05-.18.17-.18h.6c.11,0,.18.06.18.18v5.79c.01,1.98-1.18,3.09-2.95,3.09s-2.96-1.1-2.96-3.08Z"/>
        <path class="cls-1" d="M69.16,41.38l-2.15-3.23h-1.42s0,3.19,0,3.19c0,.11-.06.18-.18.18h-.6c-.11,0-.18-.06-.18-.18l-.02-8.53c0-.11.06-.18.18-.18h2.42c1.92,0,2.92,1.15,2.92,2.76,0,1.37-.73,2.43-2.17,2.7l2.16,3.19c.09.14.03.23-.13.23h-.63c-.1,0-.18-.04-.23-.13ZM67.16,37.3c1.16,0,2.07-.51,2.07-1.91s-.92-1.91-2.07-1.91h-1.57s0,3.82,0,3.82h1.57Z"/>
        <path class="cls-1" d="M74.41,41.32l-.02-8.53c0-.11.06-.18.18-.18h4.25c.11,0,.18.06.18.17v.5c0,.11-.06.18-.18.18h-3.48s0,3.03,0,3.03h3.3c.11,0,.18.06.18.17v.5c0,.11-.06.18-.18.18h-3.3s0,3.32,0,3.32h3.49c.11,0,.18.06.18.17v.5c0,.11-.06.18-.18.18h-4.27c-.11,0-.18-.06-.18-.17Z"/>
        <path class="cls-1" d="M86.19,41.35l-4.15-7.39v7.35c.01.11-.05.18-.16.18h-.6c-.11,0-.18-.06-.18-.18l-.02-8.53c0-.11.06-.18.18-.18h.81c.1,0,.18.04.23.13l4.15,7.39v-7.35c-.01-.11.05-.18.16-.18h.6c.11,0,.18.06.18.18l.02,8.53c0,.11-.06.18-.18.18h-.81c-.1,0-.18-.04-.23-.13Z"/>
        <path class="cls-1" d="M89.84,41.29l-.02-8.53c0-.11.06-.18.18-.18h4.25c.11,0,.18.06.18.17v.5c0,.11-.06.18-.18.18h-3.48s0,3.03,0,3.03h3.3c.11,0,.18.06.18.17v.5c0,.11-.06.18-.18.18h-3.3s0,3.32,0,3.32h3.49c.11,0,.18.06.18.17v.5c0,.11-.06.18-.18.18h-4.27c-.11,0-.18-.06-.18-.17Z"/>
        <path class="cls-1" d="M101.04,41.32l-2.15-3.23h-1.42s0,3.19,0,3.19c0,.11-.06.18-.18.18h-.6c-.11,0-.18-.06-.18-.18l-.02-8.53c0-.11.06-.18.18-.18h2.42c1.92,0,2.92,1.15,2.92,2.76,0,1.37-.73,2.43-2.17,2.7l2.16,3.19c.09.14.03.23-.13.23h-.63c-.1,0-.18-.04-.23-.13ZM99.04,37.24c1.16,0,2.07-.51,2.07-1.91s-.92-1.91-2.07-1.91h-1.57s0,3.82,0,3.82h1.57Z"/>
        <path class="cls-1" d="M103.46,37.04c0-2.56,1.9-4.59,4.54-4.59,1.19,0,2.18.41,3,1.19.09.09.09.15.03.22l-.39.46c-.06.08-.14.08-.22.01-.69-.61-1.5-.95-2.41-.95-2.04,0-3.58,1.57-3.57,3.66s1.54,3.64,3.6,3.64c1.88,0,3.17-1.26,3.16-2.99h-3.03c-.11,0-.18-.06-.18-.17v-.52c0-.11.06-.17.18-.17h3.78c.11,0,.19.07.19.18v.39c0,2.36-1.57,4.19-4.09,4.2-2.65,0-4.56-2-4.57-4.56Z"/>
        <path class="cls-1" d="M115.2,41.25v-4.09s-2.64-4.39-2.64-4.39c-.08-.13-.04-.23.11-.23h.66c.1,0,.17.04.22.13l2.11,3.59,2.11-3.6c.05-.09.11-.13.22-.13h.66c.15,0,.19.1.11.23l-2.62,4.4v4.09c0,.11-.06.18-.17.18h-.6c-.11,0-.18-.06-.18-.18Z"/>
      </g>
    </g>
  </g>
</svg>