<?xml version="1.0" encoding="UTF-8" standalone="no"?>
<!-- Created with Inkscape (http://www.inkscape.org/) -->

<svg
   version="1.1"
   id="svg339"
   xml:space="preserve"
   width="32"
   height="32"
   viewBox="0 0 32 32"
   xmlns="http://www.w3.org/2000/svg"
   xmlns:svg="http://www.w3.org/2000/svg"><defs
     id="defs343"><clipPath
       clipPathUnits="userSpaceOnUse"
       id="clipPath353"><path
         d="M 0,24 H 24 V 0 H 0 Z"
         id="path351" /></clipPath></defs><g
     id="g345"
     transform="matrix(1.3333333,0,0,-1.3333333,0,32)"><g
       id="g347"><g
         id="g349"
         clip-path="url(#clipPath353)"><g
           id="g355"
           transform="translate(2,10)"><path
             d="m 0,0 v 11 c 0,0.552 -0.448,1 -1,1 -0.552,0 -1,-0.448 -1,-1 V -7 c 0,-0.553 0.448,-1 1,-1 0.552,0 1,0.447 1,1 v 2 h 20 v -2 c 0,-0.553 0.448,-1 1,-1 0.552,0 1,0.447 1,1 v 7 z m 22,2 v 2 c 0,2.209 -1.791,4 -4,4 H 13 C 10.791,8 9,6.209 9,4 V 2 Z M 7,4.5 C 7,3.119 5.881,2 4.5,2 3.119,2 2,3.119 2,4.5 2,5.881 3.119,7 4.5,7 5.881,7 7,5.881 7,4.5"
             style="fill:#000000;fill-opacity:1;fill-rule:nonzero;stroke:none"
             id="path357" /></g></g></g></g></svg>
