<svg id="Layer_1" viewBox="0 0 24 24" xmlns="http://www.w3.org/2000/svg" data-name="Layer 1"><path d="m7.17 14.762c-.107.149-.279.238-.462.238-.363 0-.633-.336-.555-.691l.51-2.309h-2.05c-.412-.002-.706-.436-.585-.83l1.121-3.499c.128-.4.5-.671.92-.671h1.214c.499 0 .856.483.709.96l-.629 2.04 2.036.008c.481.002.766.539.499.938zm6.83-8.262c0 1.461-.902 2.713-2.177 3.236-.042-.116-.069-.236-.128-.347-.348-.655-.924-1.21-1.623-1.389l.361-1.17c.28-.909-.399-1.83-1.35-1.83h-4.032c-.682 0-1.286.441-1.495 1.091l-1.227 3.828c-1.331-.306-2.329-1.495-2.329-2.918 0-1.308.842-2.424 2.012-2.833.171-2.328 2.118-4.168 4.488-4.168 1.913 0 3.599 1.245 4.222 3.007 1.827.115 3.278 1.638 3.278 3.493zm5.801-2.081c-2.09-2.79-5.237-4.36-8.634-4.406.352.369.669.775.93 1.223 2.266.689 3.903 2.801 3.903 5.264 0 2.237-1.341 4.234-3.417 5.086l-.991.407c-.013.021-2.795 3.931-2.795 3.931-.479.672-1.261 1.075-2.089 1.075-.783 0-1.513-.35-2.002-.96-.472-.588-.66-1.341-.522-2.078-.659-.114-1.259-.481-1.663-1.029-.226-.307-.37-.658-.448-1.022-.764-.152-1.477-.481-2.07-.93-.002 2.421.783 4.767 2.259 6.695.477.623.739 1.458.739 2.354v.971c0 1.654 1.346 3 3 3h7c1.654 0 3-1.346 3-3h.494c2.498 0 4.629-1.868 4.957-4.344l.219-1.656h.33c1.299 0 2-1.03 2-2 0-1.419-2.932-7.014-4.199-8.582z"/></svg>